PathFileType	4	(X/Y/Z)	/Users/itak/Documents/Research/Walk-IL/dataset/trc/00294_00010.trc
DataRate	CameraRate	NumFrames	NumMarkers	Units	OrigDataRate	OrigDataStartFrame	OrigNumFrames
100.000000	100.000000	4	56	mm	100.000000	172	688
Frame#	Time	RPSI			LPSI			L3			STRN			T10			C7			CLAV			RBAK			LBAK			LSHO			LUPA			LAEL			LAOL			LWTS			LWPS			LFRA			LHTS			RSHO			RUPA			RAEL			RAOL			RWTS			RWPS			RFRA			RIFD			RBHD			LFHD			RFHD			LBHD			RHIP			RASI			LASI			LKNE			LTHI			LANK			LTIP			LTOE			LMT1			LMT5			LHEE			RKNE			RTHI			RANK			RTIP			RTOE			RMT1			RMT5			RHEE			LHPS			RHTS			RHPS			LIFD			LHIP			*53			*54			*55			
		X1	Y1	Z1	X2	Y2	Z2	X3	Y3	Z3	X4	Y4	Z4	X5	Y5	Z5	X6	Y6	Z6	X7	Y7	Z7	X8	Y8	Z8	X9	Y9	Z9	X10	Y10	Z10	X11	Y11	Z11	X12	Y12	Z12	X13	Y13	Z13	X14	Y14	Z14	X15	Y15	Z15	X16	Y16	Z16	X17	Y17	Z17	X18	Y18	Z18	X19	Y19	Z19	X20	Y20	Z20	X21	Y21	Z21	X22	Y22	Z22	X23	Y23	Z23	X24	Y24	Z24	X25	Y25	Z25	X26	Y26	Z26	X27	Y27	Z27	X28	Y28	Z28	X29	Y29	Z29	X30	Y30	Z30	X31	Y31	Z31	X32	Y32	Z32	X33	Y33	Z33	X34	Y34	Z34	X35	Y35	Z35	X36	Y36	Z36	X37	Y37	Z37	X38	Y38	Z38	X39	Y39	Z39	X40	Y40	Z40	X41	Y41	Z41	X42	Y42	Z42	X43	Y43	Z43	X44	Y44	Z44	X45	Y45	Z45	X46	Y46	Z46	X47	Y47	Z47	X48	Y48	Z48	X49	Y49	Z49	X50	Y50	Z50	X51	Y51	Z51	X52	Y52	Z52	X53	Y53	Z53	X54	Y54	Z54	X55	Y55	Z55	X56	Y56	Z56	

173	1.72	-34.06082153320312	1001.3642578125	941.8828735351562	-138.4923400878906	991.5550537109375	1083.47998046875	-105.0735473632812	1067.246826171875	1001.801879882812	-314.6540832519531	1229.570922851562	841.0629272460938	-100.9316024780273	1183.666625976562	1003.008605957031	-148.5047454833984	1426.57763671875	972.6188354492188	-268.6415405273438	1334.551025390625	873.3702392578125	-58.46736145019531	1287.763427734375	952.029541015625	-204.0634002685547	1396.195068359375	1064.694091796875	-307.7138671875	1399.703369140625	1045.271118164062	-333.2739562988281	1287.026611328125	1127.390380859375	-345.7551574707031	1085.16650390625	1150.337158203125	-261.7010192871094	1069.478393554688	1132.0361328125	-377.4244079589844	850.4322509765625	1093.280517578125	-382.8909301757812	848.3526611328125	1164.926147460938	-360.4942321777344	980.8800659179688	1160.946166992188	-396.5776977539062	749.7015991210938	1111.646728515625	-102.5777206420898	1393.609252929688	808.15185546875	-55.19690704345703	1333.394775390625	762.570556640625	-21.90000915527344	1066.957763671875	719.7464599609375	-49.6070671081543	1054.6171875	809.9164428710938	-191.5728759765625	893.0159301757812	666.9935913085938	-116.2977523803711	869.3973388671875	633.7646484375	-48.79880142211914	1008.530517578125	687.8663940429688	-254.1415100097656	722.2765502929688	626.2566528320312	-93.82400512695312	1556.74462890625	899.5155029296875	-285.2072448730469	1634.688232421875	846.4036254882812	-217.9167022705078	1613.086547851562	787.3087768554688	-202.1496276855469	1580.156005859375	993.6273803710938	-53.76208114624023	945.8551025390625	800.2349853515625	-192.8778686523438	940.799072265625	791.569091796875	-331.600830078125	943.7598266601562	997.4608764648438	-405.2188415527344	494.8096618652344	1007.816711425781	-371.3721008300781	630.0313110351562	1048.246704101562	-178.3001098632812	181.6402435302734	1236.350952148438	-307.1411743164062	327.59716796875	1123.2158203125	-275.373291015625	58.36873245239258	1096.935424804688	-198.2958221435547	80.89928436279297	1100.844360351562	-261.9684448242188	106.5851898193359	1191.104370117188	-109.4376220703125	199.5997467041016	1212.607666015625	-169.4473724365234	474.1334228515625	855.7672119140625	-127.5967864990234	729.6801147460938	784.56396484375	-135.2411346435547	40.13014602661133	974.95458984375	-191.9986267089844	350.8282775878906	883.0060424804688	-338.0938415527344	47.50411224365234	977.507568359375	-292.6829833984375	47.34506988525391	1027.370239257812	-231.4260406494141	35.83963775634766	927.0111694335938	-99.51969909667969	38.08629989624023	1036.069580078125	-376.207275390625	760.2376098632812	1173.92333984375	-238.5788116455078	796.0831909179688	612.5523681640625	-171.3521423339844	775.910400390625	601.0880126953125	-361.9924621582031	667.957763671875	1122.5478515625	-249.4728393554688	941.6503295898438	1120.5732421875	nan	nan	nan	nan	nan	nan	nan	nan	nan	
174	1.73	-40.08685684204102	1001.653564453125	939.3492431640625	-147.1283111572266	991.7520141601562	1078.931518554688	-111.6910934448242	1067.145629882812	997.477294921875	-319.06689453125	1230.136108398438	834.6874389648438	-106.810546875	1183.78662109375	998.4457397460938	-154.2221527099609	1426.78564453125	967.8809204101562	-273.4322204589844	1335.038940429688	867.7642211914062	-63.92180633544922	1288.065185546875	947.9031372070312	-210.1591644287109	1396.183471679688	1059.531494140625	-313.7841491699219	1399.802856445312	1039.76513671875	-338.157958984375	1287.66943359375	1123.04052734375	-347.544189453125	1085.960571289062	1148.63720703125	-263.3834838867188	1071.287231445312	1130.384643554688	-377.6140441894531	850.8013305664062	1093.260864257812	-382.4590759277344	848.8258666992188	1164.976318359375	-361.1336059570312	981.5726928710938	1160.201171875	-396.1300964355469	750.2434692382812	1112.114013671875	-106.8968734741211	1393.975341796875	803.752197265625	-59.44558334350586	1333.53759765625	758.2772827148438	-29.51782417297363	1066.865966796875	713.2930908203125	-57.6614875793457	1053.922485351562	803.2114868164062	-202.132568359375	896.686279296875	657.3551635742188	-127.0411148071289	872.2236938476562	624.2252807617188	-57.22522354125977	1009.29345703125	680.5399780273438	-267.3559875488281	727.7258911132812	613.5234375	-99.37425994873047	1557.473266601562	895.7468872070312	-290.21826171875	1634.375732421875	838.9296264648438	-221.7161865234375	1612.659790039062	781.2623291015625	-209.3625030517578	1580.933959960938	987.9266357421875	-56.8675422668457	946.0697021484375	797.2759399414062	-195.7191162109375	941.4135131835938	785.8233642578125	-338.5923461914062	944.2891845703125	988.9913330078125	-416.534912109375	497.9141845703125	991.8722534179688	-382.3544921875	632.0797119140625	1035.347900390625	-206.1917419433594	172.9266052246094	1219.988403320312	-326.4537353515625	325.7976989746094	1107.04736328125	-305.3666687011719	56.93793487548828	1075.597412109375	-227.3016967773438	75.85968780517578	1081.94482421875	-291.889892578125	102.5663757324219	1171.367797851562	-135.8200378417969	188.1448822021484	1198.425537109375	-168.9795989990234	473.7203063964844	854.1082763671875	-129.1345367431641	729.189208984375	781.7317504882812	-135.2215881347656	40.1475944519043	974.9860229492188	-191.6854400634766	350.5254821777344	882.0184326171875	-338.1618347167969	47.47219848632812	977.5350341796875	-292.7517395019531	47.41777801513672	1027.386352539062	-231.4092102050781	35.82536697387695	926.9844970703125	-99.59616851806641	38.14550399780273	1036.1240234375	-374.992919921875	760.7647094726562	1173.994750976562	-250.40966796875	801.4004516601562	601.0253295898438	-183.4988098144531	780.2939453125	589.7266235351562	-360.7677917480469	668.4810791015625	1122.416137695312	-258.93701171875	941.9215698242188	1113.5390625	nan	nan	nan	nan	nan	nan	nan	nan	nan	
175	1.74	-46.20582962036133	1001.860595703125	936.7308349609375	-155.7587280273438	991.9307861328125	1074.269409179688	-118.3495559692383	1067.000366210938	993.1177368164062	-323.4723510742188	1230.62646484375	828.2738647460938	-112.6218032836914	1183.873413085938	993.8853149414062	-159.9389495849609	1426.912719726562	963.0712890625	-278.2234802246094	1335.45068359375	862.1085815429688	-69.36922454833984	1288.307495117188	943.758056640625	-216.2597961425781	1396.10009765625	1054.294311523438	-319.8443603515625	1399.851318359375	1034.158203125	-343.1095275878906	1288.335571289062	1118.554321289062	-349.4541931152344	1086.791259765625	1146.688598632812	-265.1452941894531	1073.224731445312	1128.800659179688	-377.8185424804688	851.3412475585938	1092.965087890625	-382.2335205078125	849.4671020507812	1164.687622070312	-361.8993530273438	982.3623657226562	1159.229736328125	-395.8807373046875	750.9263916015625	1112.165283203125	-111.1808319091797	1394.259155273438	799.31591796875	-63.6634407043457	1333.588500976562	753.973388671875	-37.07165908813477	1066.72607421875	706.9481811523438	-65.62621307373047	1053.255859375	796.624267578125	-212.4518890380859	900.2528686523438	648.025146484375	-137.5529937744141	874.9642944335938	614.9925537109375	-65.54435729980469	1009.990356445312	673.3814086914062	-280.2081909179688	733.09716796875	601.1788330078125	-104.9502716064453	1558.131469726562	891.9263916015625	-295.2382507324219	1633.94580078125	831.4743041992188	-225.5439147949219	1612.1494140625	775.2067260742188	-216.6103973388672	1581.6123046875	982.1470336914062	-60.06913375854492	946.19140625	794.3294067382812	-198.6604156494141	942.0738525390625	779.81494140625	-345.5587768554688	944.8228759765625	980.491455078125	-427.0902709960938	500.9476013183594	976.0360107421875	-392.7924499511719	634.0253295898438	1022.463684082031	-234.2064971923828	163.68994140625	1202.317626953125	-345.4914245605469	323.7060546875	1090.303588867188	-334.8223571777344	55.72194671630859	1052.543212890625	-255.9027252197266	71.03221893310547	1061.461059570312	-321.6589965820312	98.44972991943359	1150.052612304688	-162.5737762451172	176.2569732666016	1183.056030273438	-168.5369110107422	473.324951171875	852.5086059570312	-130.8233184814453	728.6798095703125	778.9501953125	-135.2120513916016	40.19724273681641	975.050537109375	-191.4115905761719	350.2315673828125	881.09814453125	-338.2812805175781	47.40723419189453	977.586181640625	-292.8121032714844	47.46163558959961	1027.422607421875	-231.3990173339844	35.81571960449219	926.9682006835938	-99.69593811035156	38.21315383911133	1036.234252929688	-374.2173461914062	761.4686279296875	1173.746826171875	-261.9430236816406	806.6258544921875	589.86572265625	-195.3345031738281	784.603515625	578.7324829101562	-360.0361938476562	669.1443481445312	1122.04345703125	-268.4242858886719	942.157470703125	1106.329223632812	nan	nan	nan	nan	nan	nan	nan	nan	nan	
176	1.75	-52.42270278930664	1001.977905273438	934.0126342773438	-164.3815460205078	992.066650390625	1069.493286132812	-125.0469970703125	1066.826293945312	988.7236938476562	-327.8812866210938	1231.032104492188	821.8169555664062	-118.3895492553711	1183.898071289062	989.312744140625	-165.6507110595703	1426.951782226562	958.1873168945312	-283.0099792480469	1335.77294921875	856.3920288085938	-74.81056213378906	1288.472900390625	939.5826416015625	-222.360595703125	1395.946166992188	1048.974487304688	-325.8990478515625	1399.842163085938	1028.43994140625	-348.1358337402344	1289.014404296875	1113.924560546875	-351.4945983886719	1087.655151367188	1144.49462890625	-267.0038146972656	1075.2685546875	1127.197631835938	-378.0341491699219	852.0369262695312	1092.39599609375	-382.2201843261719	850.257568359375	1164.051879882812	-362.8072204589844	983.2399291992188	1158.004760742188	-395.7977600097656	751.705322265625	1111.813720703125	-115.4348449707031	1394.449096679688	794.8350219726562	-67.86103820800781	1333.541870117188	749.6513671875	-44.53888702392578	1066.534301757812	700.7012939453125	-73.48310852050781	1052.616943359375	790.1436767578125	-222.5269012451172	903.7131958007812	639.0221557617188	-147.8531646728516	877.6134033203125	606.0669555664062	-73.74868774414062	1010.61767578125	666.380859375	-292.7114868164062	738.3648681640625	589.2677001953125	-110.560920715332	1558.707763671875	888.0430297851562	-300.2710876464844	1633.3818359375	824.0748901367188	-229.4333038330078	1611.552612304688	769.1423950195312	-223.888671875	1582.175903320312	976.2999267578125	-63.39648056030273	946.2214965820312	791.3678588867188	-201.7122955322266	942.7060546875	773.6376342773438	-352.4856872558594	945.3550415039062	971.9772338867188	-436.9176940917969	503.8440551757812	960.3779907226562	-402.6937561035156	635.8223266601562	1009.637451171875	-262.2680358886719	154.0356292724609	1183.299926757812	-364.2641296386719	321.3178405761719	1072.969848632812	-363.4972534179688	54.77575302124023	1027.807006835938	-283.9383544921875	66.51580047607422	1039.420043945312	-351.1270446777344	94.32224273681641	1127.06005859375	-189.6388397216797	164.0873107910156	1166.44287109375	-168.166748046875	472.9476928710938	850.9554443359375	-132.6867370605469	728.1534423828125	776.1941528320312	-135.2158966064453	40.27341461181641	975.1441040039062	-191.1959381103516	349.9435119628906	880.2236328125	-338.4425048828125	47.31184387207031	977.6517944335938	-292.8415222167969	47.47746276855469	1027.46142578125	-231.3940582275391	35.81442260742188	926.9635009765625	-99.81098937988281	38.3053092956543	1036.39892578125	-373.8609924316406	762.3232421875	1173.197387695312	-273.1929931640625	811.738525390625	579.111083984375	-206.8755645751953	788.821044921875	568.130615234375	-359.7560729980469	669.9237670898438	1121.499633789062	-277.9287719726562	942.3504028320312	1098.978393554688	nan	nan	nan	nan	nan	nan	nan	nan	nan	
